<svg width="85" height="85" viewBox="0 0 85 85" fill="none" xmlns="http://www.w3.org/2000/svg">
<circle cx="42.5" cy="42.5" r="42.5" fill="url(#paint0_linear_19_20)"/>
<path d="M65.6334 32.1019C65.9935 30.9849 65.3798 29.7875 64.2628 29.4275L46.06 23.5604C44.943 23.2003 43.7456 23.814 43.3855 24.931C43.0255 26.048 43.6392 27.2454 44.7562 27.6054L60.9365 32.8206L55.7213 49.0009C55.3612 50.1179 55.9749 51.3153 57.0919 51.6753C58.2089 52.0354 59.4063 51.4217 59.7663 50.3047L65.6334 32.1019ZM22.2192 55.0509L64.5801 33.3411L62.6417 29.5589L20.2808 51.2686L22.2192 55.0509Z" fill="white"/>
<defs>
<linearGradient id="paint0_linear_19_20" x1="42.5" y1="-1.62125e-06" x2="69.7" y2="72.675" gradientUnits="userSpaceOnUse">
<stop stop-color="#4831D4"/>
<stop offset="1" stop-color="#CCF381"/>
</linearGradient>
</defs>
</svg>
